<svg id="color" enable-background="new 0 0 24 24" height="512" viewBox="0 0 24 24" width="512" xmlns="http://www.w3.org/2000/svg"><path d="m21 15.75c-.414 0-.75-.336-.75-.75v-1.5h-16.5v1.5c0 .414-.336.75-.75.75s-.75-.336-.75-.75v-2.25c0-.414.336-.75.75-.75h18c.414 0 .75.336.75.75v2.25c0 .414-.336.75-.75.75z" fill="#607d8b"/><path d="m12 16c-.414 0-.75-.336-.75-.75v-4.5c0-.414.336-.75.75-.75s.75.336.75.75v4.5c0 .414-.336.75-.75.75z" fill="#607d8b"/><circle cx="12" cy="18.5" fill="#2196f3" r="1.5"/><path d="m12.75 21h-1.5c-1.24 0-2.25 1.009-2.25 2.25 0 .414.336.75.75.75h4.5c.414 0 .75-.336.75-.75 0-1.241-1.01-2.25-2.25-2.25z" fill="#2196f3"/><circle cx="21" cy="18.5" fill="#2196f3" r="1.5"/><path d="m21.75 21h-1.5c-1.24 0-2.25 1.009-2.25 2.25 0 .414.336.75.75.75h4.5c.414 0 .75-.336.75-.75 0-1.241-1.01-2.25-2.25-2.25z" fill="#2196f3"/><path d="m16.36 3.237-2.542-.379-1.151-2.429c-.124-.262-.388-.429-.678-.429-.001 0-.002 0-.003 0-.29.001-.555.17-.677.434l-1.134 2.436-2.541.397c-.278.043-.508.238-.596.505-.089.268-.019.561.177.762l1.867 1.898-.431 2.7c-.046.283.076.568.311.732.128.091.278.136.43.136.125 0 .251-.031.365-.095l2.259-1.258 2.269 1.242c.25.138.559.122.795-.046.233-.166.353-.451.306-.735l-.45-2.696 1.854-1.911c.196-.202.263-.496.172-.762-.092-.267-.323-.46-.602-.502z" fill="#ffc107"/><path d="m11.985 12.781h-8.346c-.353 0-.639.285-.639.638v2.331c.414 0 .75-.336.75-.75v-1.5h8.235z" fill="#546d79"/><path d="m12 10c-.414 0-.75.336-.75.75v4.5c0 .414.336.75.75.75z" fill="#546d79"/><path d="m3 20c.827 0 1.5-.673 1.5-1.5s-.673-1.5-1.5-1.5-1.5.673-1.5 1.5.673 1.5 1.5 1.5z" fill="#2196f3"/><path d="m3.75 21h-1.5c-1.24 0-2.25 1.01-2.25 2.25 0 .414.336.75.75.75h4.5c.414 0 .75-.336.75-.75 0-1.24-1.01-2.25-2.25-2.25z" fill="#2196f3"/><g fill="#1d83d4"><path d="m3 17c-.827 0-1.5.673-1.5 1.5s.673 1.5 1.5 1.5z"/><path d="m3 21h-.75c-1.24 0-2.25 1.01-2.25 2.25 0 .414.336.75.75.75h2.25z"/><path d="m12 17c-.827 0-1.5.673-1.5 1.5s.673 1.5 1.5 1.5z"/><path d="m12 21h-.75c-1.24 0-2.25 1.01-2.25 2.25 0 .414.336.75.75.75h2.25z"/><path d="m21 17c-.827 0-1.5.673-1.5 1.5s.673 1.5 1.5 1.5z"/><path d="m21 21h-.75c-1.24 0-2.25 1.01-2.25 2.25 0 .414.336.75.75.75h2.25z"/></g><path d="m11.989 0h-.003c-.29.001-.555.17-.677.434l-1.134 2.436-2.541.397c-.278.044-.508.239-.596.505-.089.267-.02.561.177.761l1.867 1.898-.431 2.7c-.046.284.076.568.311.733.128.091.278.136.43.136.125 0 .251-.031.365-.095l2.259-1.258v-8.647c-.009 0-.018 0-.027 0z" fill="#dea806"/></svg>