<svg id="flat" height="512" viewBox="0 0 512 512" width="512" xmlns="http://www.w3.org/2000/svg"><path d="m400 327.99979-39.55516-74.7153a40 40 0 0 0 -35.35151-21.28449h-202.71748a40 40 0 0 0 -36.7658 24.24323l-55.86168 130.34391a71.09483 71.09483 0 0 0 -5.74837 28.00561v.00009a73.40715 73.40715 0 0 0 73.40716 73.40716h302.59284z" fill="#548aff"/><path d="m208 400h-87.76873a8.26924 8.26924 0 0 1 -5.89338-2.34468 8.007 8.007 0 0 1 -1.49316-9.23347l20.42207-40.84415a8 8 0 0 1 10.73358-3.57754 8.00005 8.00005 0 0 1 3.57734 10.733l-14.63338 29.26684h75.05566z" fill="#4f7ff7"/><path d="m261.263 413.051-21.263-85.051 16-32-32-16-32 16 16 32-16 64z" fill="#f5714f"/><path d="m176 152h96v128h-96z" fill="#ffbfa1"/><path d="m296 72v92.00006a59.99994 59.99994 0 0 1 -59.99994 59.99994h-.00012a59.99994 59.99994 0 0 1 -59.99994-59.99994v-92.00006z" fill="#ffceb6"/><path d="m240 168h-8v-16h8a8.00917 8.00917 0 0 0 8-8v-16h16v16a24.02718 24.02718 0 0 1 -24 24z" fill="#ffb089"/><circle cx="224" cy="120" fill="#b1712c" r="8"/><circle cx="272" cy="120" fill="#b1712c" r="8"/><path d="m256 192h-20.68652a35.08383 35.08383 0 0 1 -24.97022-10.34277l11.31348-11.31446a19.18715 19.18715 0 0 0 13.65674 5.65723h20.68652z" fill="#ffb089"/><path d="m176 112 32-16v-24h88a24 24 0 0 0 24-24 24 24 0 0 0 -24-24h-72.8486a47.1514 47.1514 0 0 0 -47.1514 47.1514z" fill="#b1712c"/><path d="m176 232 48 48-48 32-24-80z" fill="#7dafff"/><path d="m272 232-48 48 48 32 24-80z" fill="#7dafff"/><path d="m192 488h104v-48a48 48 0 0 0 -48-48h-56z" fill="#ffceb6"/><path d="m248 446.45934a7.99977 7.99977 0 0 1 7.99977 7.99977v27.0818a7.99976 7.99976 0 0 1 -7.99977 7.99975 7.99976 7.99976 0 0 1 -7.99976-7.99976v-27.0818a7.99976 7.99976 0 0 1 7.99976-7.99976z" fill="#ffbfa1" transform="matrix(.928 -.371 .371 .928 -156.073 125.578)"/><rect fill="#ffbfa1" height="60.926" rx="8" transform="matrix(.919 -.394 .394 .919 -158.887 145.915)" width="16" x="268" y="429.537"/><path d="m296 328h192v160h-192z" fill="#ffc431"/><circle cx="392" cy="408" fill="#ffd873" r="24"/><path d="m240 336h-32a8 8 0 0 1 0-16h32a8 8 0 0 1 0 16z" fill="#ef5e3b"/></svg>