<?xml version="1.0" standalone="no"?><svg xmlns="http://www.w3.org/2000/svg" viewBox="0 0 1440 320"><path fill="#6f4e37" fill-opacity="1" d="M0,64L30,69.3C60,75,120,85,180,90.7C240,96,300,96,360,85.3C420,75,480,53,540,58.7C600,64,660,96,720,133.3C780,171,840,213,900,192C960,171,1020,85,1080,85.3C1140,85,1200,171,1260,170.7C1320,171,1380,85,1410,42.7L1440,0L1440,320L1410,320C1380,320,1320,320,1260,320C1200,320,1140,320,1080,320C1020,320,960,320,900,320C840,320,780,320,720,320C660,320,600,320,540,320C480,320,420,320,360,320C300,320,240,320,180,320C120,320,60,320,30,320L0,320Z"></path></svg>